#define image_width 198
#define image_height 167
static char image_bits[] = {
 0x00,0x00,0x00,0x00,0x00,0x00,0x00,0x00,0x00,0x00,0x30,0x00,0x00,0x00,0x00,
 0x00,0x00,0x00,0x00,0x00,0x00,0x00,0x00,0x00,0xc0,0x00,0x00,0x00,0x00,0x00,
 0x00,0x00,0x00,0x00,0x00,0x30,0x00,0x00,0x00,0x00,0x00,0x00,0x00,0x00,0x00,
 0x00,0x00,0x00,0x00,0xc0,0x00,0x00,0x00,0x00,0x00,0x00,0x00,0x00,0x00,0x00,
 0x70,0x00,0x00,0x00,0x00,0x00,0x00,0x00,0x00,0x00,0x00,0x00,0x00,0x00,0xc0,
 0x00,0x00,0x00,0x00,0x00,0x00,0x00,0x00,0x00,0x00,0x78,0x00,0x00,0x00,0x00,
 0x00,0x00,0x00,0x00,0x00,0x00,0x00,0x00,0x00,0xc0,0x00,0x00,0x00,0x00,0x00,
 0x00,0x00,0x00,0x00,0x00,0x78,0x00,0x00,0x00,0x00,0x00,0x00,0x00,0x00,0x00,
 0x00,0x00,0x00,0x00,0xc0,0x00,0x00,0x00,0x00,0x00,0x00,0x00,0x00,0x00,0x00,
 0x78,0x00,0x00,0x00,0x00,0x00,0x00,0x00,0x00,0x00,0x00,0x00,0x00,0x00,0xc0,
 0x00,0x00,0x00,0x00,0x00,0x00,0x00,0x00,0x00,0x00,0x78,0x00,0x70,0x00,0x80,
 0x01,0x00,0x00,0x00,0x00,0x00,0x00,0x00,0x00,0xc0,0x00,0x00,0x00,0x00,0x00,
 0x00,0x00,0x00,0x00,0x00,0x78,0x00,0x38,0x00,0x80,0x01,0x00,0x00,0x00,0x00,
 0x00,0x00,0x00,0x00,0xc0,0x00,0x00,0x00,0x00,0x00,0x00,0x00,0x00,0x00,0x00,
 0x78,0x00,0x78,0x00,0xc0,0x01,0x00,0x00,0x00,0x00,0x00,0x00,0x00,0x00,0xc0,
 0x00,0x00,0x00,0x00,0x00,0x00,0x00,0x00,0xe0,0x10,0x78,0x60,0x78,0x00,0xe0,
 0x01,0x00,0x00,0x00,0x00,0x00,0x00,0x00,0x00,0xc0,0x00,0x00,0x00,0x00,0x00,
 0x00,0x00,0x00,0xe0,0x21,0x78,0x60,0x38,0x00,0xe0,0x00,0x00,0x00,0x00,0x00,
 0x00,0x00,0x00,0x00,0xc0,0x00,0x00,0x00,0x00,0x00,0x00,0x04,0x00,0xe0,0x21,
 0xf8,0x20,0x3c,0x08,0xf0,0x00,0x00,0x00,0x00,0x00,0x00,0x00,0x00,0x00,0xc0,
 0x00,0x00,0x00,0x00,0x00,0x00,0x0c,0x00,0xe0,0x61,0xd8,0x31,0x3c,0x08,0x78,
 0x00,0x00,0x00,0x00,0x00,0x00,0x00,0x00,0x00,0xc0,0x00,0x00,0x00,0x00,0x00,
 0x00,0x1c,0x00,0xe0,0x61,0xdc,0x31,0x3e,0x0c,0x78,0x80,0x01,0x00,0x00,0x00,
 0x00,0x00,0x00,0x00,0xc0,0x00,0x00,0x00,0x00,0x00,0x00,0x18,0x40,0xe0,0xe1,
 0xce,0x3b,0x3e,0x04,0x7c,0xc0,0x01,0x00,0x00,0x00,0x00,0x00,0x00,0x00,0xc0,
 0x00,0x00,0x00,0x00,0x00,0x00,0x18,0xc0,0xe0,0xe3,0x8e,0x3f,0x36,0x06,0x7e,
 0xe0,0x01,0x00,0x00,0x00,0x00,0x00,0x00,0x00,0xc0,0x00,0x00,0x00,0x00,0x00,
 0x00,0x38,0xc0,0xe0,0xfb,0x07,0x7f,0x3f,0x06,0x37,0xe0,0x01,0x00,0x00,0x00,
 0x00,0x00,0x00,0x00,0xc0,0x00,0x00,0x00,0x00,0x00,0x00,0x78,0xc0,0xe0,0xff,
 0x03,0xfe,0x3f,0x8f,0x3f,0xe0,0x01,0x00,0x00,0x00,0x00,0x00,0x00,0x00,0xc0,
 0x00,0x00,0x00,0x00,0x00,0x00,0x78,0xc0,0x71,0x1f,0x00,0xc0,0xfb,0xff,0x39,
 0xf8,0x00,0x00,0x00,0x00,0x00,0x00,0x00,0x00,0xc0,0x00,0x00,0x00,0x00,0x00,
 0x00,0xf0,0xc0,0x71,0x07,0x00,0x80,0xfb,0xff,0x38,0xd8,0x00,0x00,0x00,0x00,
 0x00,0x00,0x00,0x00,0xc0,0x00,0x00,0x00,0x00,0x00,0x00,0xf0,0xc1,0x7f,0x07,
 0x00,0x80,0x31,0x00,0x38,0x78,0x00,0x00,0x00,0x00,0x00,0x00,0x00,0x00,0xc0,
 0x00,0x00,0x00,0x00,0x00,0x00,0xb0,0xc3,0x7f,0x06,0x00,0x80,0x31,0x00,0x38,
 0x6c,0x00,0x00,0x00,0x00,0x00,0x00,0x00,0x00,0xc0,0x00,0x00,0x00,0x00,0x00,
 0x20,0x20,0xff,0x77,0x06,0x00,0xc0,0x31,0x00,0x78,0x66,0x10,0x00,0x00,0x00,
 0x00,0x00,0x00,0x00,0xc0,0x00,0x00,0x00,0x00,0x00,0x60,0x60,0xfe,0x63,0x0e,
 0x00,0xc0,0x31,0x00,0xf0,0x77,0x18,0x00,0x00,0x00,0x00,0x00,0x00,0x00,0xc0,
 0x00,0x00,0x00,0x00,0x00,0xe0,0x60,0x3c,0x60,0x0c,0x80,0xe0,0x30,0x00,0xe0,
 0x3f,0x18,0x80,0x01,0x00,0x00,0x00,0x00,0x00,0xc0,0x00,0x00,0x00,0x00,0x00,
 0xc0,0x61,0x00,0x60,0x1c,0x80,0x60,0x60,0x00,0xc0,0x3b,0x0c,0xc0,0x01,0x00,
 0x00,0x00,0x00,0x00,0xc0,0x00,0x00,0x00,0x00,0x00,0x98,0xff,0x01,0x60,0x18,
 0xc0,0x60,0x60,0x00,0x80,0x39,0x0e,0xe0,0x00,0x00,0x00,0x00,0x00,0x00,0xc0,
 0x00,0x00,0x00,0x00,0x00,0x18,0xff,0x00,0x60,0x10,0xc0,0x61,0x60,0x40,0xc0,
 0x39,0x07,0x70,0x00,0x00,0x00,0x00,0x00,0x00,0xc0,0x00,0x00,0x00,0x00,0x00,
 0x38,0x7e,0x00,0x60,0x60,0xc0,0x21,0x60,0x60,0xe0,0xf8,0x07,0x78,0x00,0x00,
 0x00,0x00,0x00,0x00,0xc0,0x00,0x00,0x00,0x00,0x00,0x78,0x1e,0x20,0x70,0x00,
 0xc0,0x01,0x40,0x60,0x60,0xf8,0x07,0x3c,0x00,0x00,0x00,0x00,0x00,0x00,0xc0,
 0x00,0x00,0x00,0x00,0x00,0xf0,0x07,0x60,0x70,0x00,0xe0,0x01,0x00,0x70,0x70,
 0x8c,0x07,0x1f,0x00,0x00,0x00,0x00,0x00,0x00,0xc0,0x00,0x00,0x00,0x00,0x00,
 0xf0,0x03,0x60,0x70,0x00,0x60,0x01,0x00,0x70,0x38,0x8c,0xc7,0x0f,0x00,0x00,
 0x00,0x00,0x00,0x00,0xc0,0x00,0x00,0x00,0x02,0x00,0xe0,0x03,0xe0,0x70,0x00,
 0x60,0x01,0x00,0x78,0x18,0x04,0xfe,0x07,0xc0,0x01,0x00,0x00,0x00,0x00,0xc0,
 0x00,0x00,0x00,0x06,0x60,0xe0,0x07,0xe0,0x00,0x00,0x60,0x03,0x00,0x38,0x0e,
 0x04,0x7c,0x06,0xe0,0x01,0x00,0x00,0x00,0x00,0xc0,0x00,0x00,0x00,0x1e,0xc0,
 0x77,0x0e,0xc0,0x01,0x00,0x20,0x03,0x00,0x2c,0x00,0x06,0x00,0x07,0xf8,0x03,
 0x00,0x00,0x00,0x00,0xc0,0x00,0x00,0x00,0x3e,0x80,0xff,0x1e,0xc0,0x03,0x00,
 0x30,0x02,0x00,0x36,0x00,0x06,0x00,0x07,0x98,0x01,0x00,0x00,0x00,0x00,0xc0,
 0x00,0x00,0x00,0xf8,0x01,0xde,0x78,0xc0,0x06,0x00,0x30,0x06,0x00,0x36,0x00,
 0x06,0x80,0x03,0xe6,0x00,0x00,0x00,0x00,0x00,0xc0,0x00,0x00,0x00,0xf8,0x07,
 0xde,0xf1,0x80,0x06,0x00,0x18,0x06,0x00,0x33,0x00,0x06,0x00,0x03,0x77,0x00,
 0x00,0x00,0x00,0x00,0xc0,0x00,0x00,0x00,0xe0,0x7f,0xc7,0x81,0x83,0x0c,0x00,
 0x18,0x06,0x80,0x13,0x00,0x00,0x00,0xe7,0x39,0x00,0x00,0x00,0x00,0x00,0xc0,
 0x00,0x00,0x00,0xe0,0xff,0x87,0x01,0x81,0x19,0x20,0x08,0x04,0x80,0x11,0x00,
 0x00,0x02,0xff,0x18,0x00,0x00,0x00,0x00,0x00,0xc0,0x00,0x00,0x00,0xc0,0xf9,
 0x81,0x01,0x80,0x31,0x20,0x00,0x00,0xc0,0x10,0x00,0x80,0x03,0x3e,0x0e,0x00,
 0x00,0x00,0x00,0x00,0xc0,0x00,0x00,0x00,0x80,0xe3,0x81,0x01,0x80,0x61,0x60,
 0x00,0x80,0x61,0x10,0x00,0x80,0x01,0x1e,0x06,0x00,0x00,0x00,0x00,0x00,0xc0,
 0x00,0x00,0x00,0x00,0x07,0x80,0x01,0x80,0x01,0x60,0x00,0x80,0x01,0x10,0x00,
 0xe0,0xc1,0x87,0xe7,0x00,0x00,0x00,0x00,0x00,0xc0,0x00,0x00,0x00,0x00,0x07,
 0x80,0x01,0x80,0x01,0x60,0x00,0x80,0x01,0x00,0x00,0xf0,0xf0,0xc3,0x73,0x00,
 0x00,0x00,0x00,0x00,0xc0,0x00,0x00,0x00,0x00,0x16,0x00,0x01,0x80,0x01,0xe0,
 0x00,0xc0,0x01,0x00,0x00,0x78,0x38,0xe0,0x3f,0x00,0x1e,0x00,0x00,0x00,0xc0,
 0x00,0x00,0x00,0x00,0x1e,0x00,0x01,0x80,0x01,0xa0,0x01,0xc0,0x01,0x00,0x00,
 0x7c,0x00,0xe0,0x1f,0x00,0x1f,0x00,0x00,0x00,0xc0,0x00,0x00,0x00,0x00,0x1e,
 0x00,0x01,0x80,0x01,0x30,0x03,0x60,0x01,0x00,0x80,0x37,0x00,0xf8,0x0f,0xe0,
 0x07,0x00,0x00,0x00,0xc0,0x00,0x00,0x00,0x06,0x1c,0x00,0x00,0x80,0x01,0x10,
 0x06,0x60,0x03,0x80,0xe1,0x13,0x00,0xf8,0x0f,0xf0,0x07,0x00,0x00,0x00,0xc0,
 0x00,0x00,0x00,0xf8,0x1f,0x00,0x00,0x04,0x00,0x18,0x00,0x20,0x06,0xc0,0x01,
 0x18,0x00,0xfc,0xff,0xff,0x01,0x00,0x00,0x00,0xc0,0x00,0x00,0x00,0xf0,0x0f,
 0x0c,0x00,0x04,0x00,0x10,0x00,0x30,0x06,0xc0,0x00,0x08,0x00,0xfe,0xff,0xef,
 0x00,0x00,0x00,0x00,0xc0,0x00,0x00,0x00,0x80,0x07,0x39,0x00,0x18,0x00,0x00,
 0x00,0x00,0x02,0xa0,0x00,0x04,0x00,0x0e,0xf0,0x78,0x00,0x00,0x00,0x00,0xc0,
 0x00,0x00,0x00,0x80,0x07,0x78,0x00,0x18,0x00,0x00,0x00,0x00,0x00,0x90,0x00,
 0x04,0x00,0x06,0x00,0x38,0x00,0x00,0x00,0x00,0xc0,0x00,0x00,0x00,0x00,0x07,
 0xf8,0x01,0xf8,0x00,0x00,0x00,0x00,0x00,0x8e,0x00,0x06,0x00,0x02,0x00,0x1c,
 0x00,0x00,0x00,0x00,0xc0,0x00,0x00,0x00,0x80,0x07,0xf8,0x01,0xf0,0x01,0x00,
 0x00,0x00,0x00,0x86,0x00,0x06,0x00,0x00,0x00,0x0e,0x00,0x00,0x00,0x00,0xc0,
 0x00,0x00,0x00,0x80,0x03,0x1c,0x06,0x10,0x06,0x00,0x00,0x00,0x18,0xc0,0x00,
 0x02,0x00,0x00,0x00,0x06,0x00,0x00,0x00,0x00,0xc0,0x00,0x00,0x00,0x80,0x03,
 0x0e,0x06,0x20,0x00,0x10,0x00,0x00,0x18,0xc0,0x00,0x82,0x00,0x00,0x00,0x07,
 0x00,0x00,0x00,0x00,0xc0,0x00,0x00,0x00,0xe0,0x03,0x07,0x18,0x20,0x00,0x30,
 0x00,0x00,0x18,0x00,0x00,0xe0,0x00,0x00,0x80,0xff,0x00,0x00,0x00,0x00,0xc0,
 0x00,0x00,0x00,0xe0,0x01,0x07,0x18,0x60,0x00,0x78,0x00,0x00,0x14,0x00,0x00,
 0x60,0x00,0x00,0x80,0x3f,0x00,0x00,0x00,0x00,0xc0,0x00,0x00,0x00,0xf8,0x81,
 0x01,0x70,0x60,0x00,0x98,0x01,0x00,0x04,0x00,0x00,0x78,0x00,0x80,0x01,0x07,
 0x00,0x00,0x00,0x00,0xc0,0x00,0x00,0x00,0xf8,0xc1,0x01,0x60,0x00,0x00,0x08,
 0x01,0x06,0x00,0x00,0x00,0x3c,0x00,0xe0,0x01,0x07,0x00,0x00,0x00,0x00,0xc0,
 0x00,0x00,0x00,0xde,0xe1,0xfc,0xe1,0x00,0x00,0x08,0x00,0x06,0x20,0x00,0x80,
 0x1b,0x00,0x7e,0x00,0x07,0x00,0x00,0x00,0x00,0xc0,0x00,0x00,0x00,0xce,0xe1,
 0xfe,0xc7,0x01,0x00,0x00,0x00,0x08,0x20,0x00,0xe0,0x19,0xc0,0x7f,0x00,0x06,
 0x00,0x00,0x00,0x00,0xc0,0x00,0x00,0x00,0xc7,0xf1,0x07,0xde,0x01,0x00,0x00,
 0x00,0x08,0x00,0x00,0x00,0x0c,0xff,0x1f,0x00,0x06,0x7e,0x00,0x00,0x00,0xc0,
 0x00,0x00,0x80,0xc3,0xf1,0x01,0xb8,0x01,0x00,0x00,0x00,0x00,0x00,0x00,0x00,
 0x04,0x7e,0x0e,0x00,0x06,0x7f,0x00,0x00,0x00,0xc0,0x00,0x00,0x80,0xff,0x79,
 0x00,0xf0,0x01,0x00,0x00,0x00,0x00,0x00,0x00,0x00,0x06,0x80,0x03,0x00,0xfe,
 0x3f,0x00,0x00,0x00,0xc0,0x00,0x00,0x80,0xff,0x79,0x00,0xe0,0x03,0x0c,0x00,
 0x00,0x00,0x00,0x00,0x00,0x06,0x80,0x01,0x00,0xff,0x1e,0x00,0x00,0x00,0xc0,
 0x00,0x00,0xc0,0x87,0x61,0x00,0xe0,0x03,0x30,0x00,0x00,0x00,0x00,0x00,0x00,
 0x06,0xc0,0x00,0xfe,0x8f,0x07,0x00,0x00,0x00,0xc0,0x00,0x00,0xc0,0x83,0x21,
 0x00,0x60,0x02,0x60,0x00,0x00,0x00,0x00,0x00,0x00,0x02,0x40,0x00,0xfc,0x83,
 0x07,0x00,0x00,0x00,0xc0,0x00,0x00,0x80,0x81,0x31,0x1e,0x60,0x00,0x00,0x00,
 0x00,0x60,0x00,0x00,0x00,0x00,0x60,0x00,0x00,0xf0,0x01,0x00,0x00,0x00,0xc0,
 0x00,0x00,0x80,0x81,0x31,0x1e,0x60,0x00,0x00,0xe0,0x00,0x78,0x00,0x1e,0x00,
 0x00,0x20,0x00,0x00,0x78,0x00,0x00,0x00,0x00,0xc0,0x00,0x00,0x80,0xf1,0x39,
 0x1e,0x60,0x00,0x00,0x80,0x00,0x40,0x00,0x10,0xc0,0x03,0x20,0x00,0x00,0x3c,
 0x00,0x00,0x00,0x00,0xc0,0x00,0x00,0x80,0xf1,0x31,0x0e,0x70,0x00,0x00,0x80,
 0x00,0x40,0x00,0x18,0x00,0x01,0x00,0x00,0x00,0x3e,0x00,0x00,0x00,0x00,0xc0,
 0x00,0x00,0x80,0xf1,0x31,0x00,0xf8,0x03,0x00,0x00,0x00,0x00,0x00,0x00,0x80,
 0x00,0x00,0x00,0x80,0x3f,0x70,0x00,0xf8,0x07,0xc0,0x00,0x00,0x80,0xe1,0x71,
 0x00,0xfe,0x01,0x00,0x00,0x00,0x00,0x00,0x00,0x80,0x00,0x00,0x18,0x80,0xff,
 0x7f,0x00,0xfe,0x1f,0xc0,0x00,0x00,0xc0,0x81,0x71,0xc0,0x0f,0x00,0x00,0x00,
 0x00,0x00,0x00,0x00,0x00,0x80,0x07,0x78,0xc0,0xff,0x0f,0x80,0x0f,0xfe,0xc0,
 0x00,0x00,0xe0,0x83,0x61,0xe0,0x03,0x00,0x00,0x00,0x00,0x00,0x00,0x00,0x00,
 0x80,0x3f,0xe0,0xe0,0xf9,0x03,0x80,0x03,0xf8,0xc1,0x00,0x00,0xf0,0x83,0x61,
 0xf8,0x00,0x00,0x00,0x00,0x00,0x00,0x60,0x00,0x00,0x00,0xf0,0x81,0x63,0xf0,
 0x00,0x60,0x00,0xf0,0xc7,0x00,0x00,0x70,0xc6,0xe1,0x78,0x00,0x00,0x08,0x00,
 0x00,0x00,0x60,0x00,0x00,0x00,0x78,0x80,0x67,0x70,0x00,0x78,0x00,0xf8,0xcf,
 0x00,0x00,0x38,0xce,0xe0,0x1d,0x00,0x00,0x18,0x10,0x00,0x00,0x00,0x00,0x00,
 0x00,0x06,0x70,0x00,0x60,0x00,0x1c,0xf0,0x3f,0xc8,0x00,0x00,0x38,0xfc,0xc0,
 0x1f,0x00,0x00,0x38,0x30,0x00,0x00,0x00,0x00,0x00,0x00,0x03,0x18,0x00,0x60,
 0x00,0x0e,0xc0,0x1f,0xc0,0x00,0x00,0x1c,0xfe,0x81,0x07,0x00,0x00,0x60,0x60,
 0x00,0x00,0x00,0x00,0x00,0x00,0x01,0x00,0x00,0xe0,0x80,0x07,0x00,0x06,0xc0,
 0x00,0x00,0x9c,0xff,0x81,0x07,0x00,0x00,0x60,0x60,0x00,0x00,0x00,0x00,0x00,
 0x00,0x00,0x00,0x00,0xe0,0x80,0x03,0x00,0x07,0xc0,0x00,0x00,0xce,0x07,0x03,
 0x07,0x00,0x00,0xc0,0x40,0x00,0x00,0x00,0x40,0x00,0x00,0x00,0x00,0x08,0xe0,
 0xe1,0x01,0xfe,0x03,0xc0,0x00,0x00,0xce,0x01,0x06,0x07,0x00,0x00,0xc0,0xc0,
 0x00,0x00,0x00,0x40,0x00,0x00,0x00,0x00,0x18,0xe0,0xf3,0x00,0xff,0x01,0xc0,
 0x00,0x00,0x66,0x00,0x0e,0x07,0x00,0x00,0x80,0x81,0x00,0x00,0x00,0x80,0x00,
 0x00,0x00,0x00,0x78,0xe0,0x7f,0x00,0xe0,0x00,0xc0,0x00,0x00,0x67,0x00,0x0c,
 0x03,0x00,0x00,0x80,0x81,0x00,0x00,0x18,0xe0,0x00,0x00,0x00,0x00,0x70,0x60,
 0x1e,0x00,0x70,0x00,0xc0,0x00,0x80,0x67,0x00,0x18,0x07,0x00,0x00,0x80,0x81,
 0x01,0x04,0x20,0x00,0x00,0x06,0x80,0x01,0x80,0x27,0x00,0x00,0x78,0x00,0xc0,
 0x00,0x80,0x67,0x00,0x18,0x07,0x00,0x00,0x80,0x81,0x01,0x04,0x60,0x00,0x00,
 0x04,0x80,0x01,0xe0,0x2f,0x00,0x00,0x38,0x00,0xc0,0x00,0x80,0x63,0x10,0x70,
 0x07,0x00,0x00,0x00,0x81,0x01,0x04,0x18,0x00,0x80,0x07,0x80,0x01,0x7e,0x0c,
 0x00,0x00,0x1c,0x00,0xc0,0x00,0x80,0x63,0x10,0x60,0x06,0x00,0x00,0x00,0x81,
 0x01,0x00,0x00,0x00,0x80,0x00,0x00,0x03,0x0e,0x00,0x00,0x00,0x1e,0x00,0xc0,
 0x00,0x80,0xe1,0x60,0xc0,0x07,0x00,0x00,0x00,0x81,0x01,0x00,0x00,0x00,0x00,
 0x00,0x00,0x06,0x00,0x00,0x00,0xe0,0x0f,0x00,0xc0,0x00,0x80,0xe1,0xc0,0x80,
 0x07,0x00,0x00,0x00,0x81,0x01,0x00,0x00,0x00,0x00,0x00,0x00,0x06,0x00,0x00,
 0x00,0x00,0x07,0x00,0xc0,0x00,0xc0,0xc1,0x81,0x07,0x07,0x00,0x00,0x00,0x81,
 0x01,0x00,0x00,0x00,0x04,0x00,0x00,0x1c,0x00,0x00,0x00,0xb0,0x07,0x00,0xc0,
 0x00,0xf0,0x81,0x81,0xff,0x0f,0x00,0x00,0x80,0x81,0x01,0x00,0x00,0x00,0x00,
 0x60,0x00,0x18,0x00,0x00,0x00,0xf0,0x03,0x00,0xc0,0x00,0xf8,0x81,0xff,0xff,
 0x1f,0x00,0x00,0x80,0x81,0x00,0x80,0xf7,0xff,0x01,0x60,0x00,0x70,0x40,0x10,
 0x00,0x80,0x01,0x00,0xc0,0x00,0xf8,0x81,0xff,0x01,0x1f,0x00,0x00,0x80,0x81,
 0x00,0x80,0xff,0xff,0x03,0x40,0x00,0x60,0x40,0x10,0x00,0xc0,0x01,0x00,0xc0,
 0x00,0xfc,0x81,0x67,0x00,0x1f,0x00,0x00,0x80,0xc1,0x00,0x00,0x00,0x80,0x07,
 0x80,0xf8,0xcf,0xc1,0x00,0x00,0xe0,0x00,0x00,0xc0,0x00,0x9e,0x81,0x63,0x00,
 0x3f,0x00,0x00,0xc0,0x40,0x00,0x00,0x00,0x00,0x0f,0x80,0x81,0xbf,0x81,0x11,
 0x00,0xe0,0x00,0x00,0xc0,0x00,0x86,0x83,0x61,0x80,0x7f,0x00,0x00,0xc0,0x60,
 0x40,0x00,0x00,0x00,0x1e,0x00,0x03,0xe0,0x87,0x19,0x00,0x70,0x00,0x00,0xc0,
 0x00,0x86,0x83,0x61,0x80,0x63,0x00,0x00,0x60,0x60,0x68,0x30,0x00,0x00,0x1e,
 0xf0,0x03,0x80,0x87,0x19,0x00,0x71,0x00,0x00,0xc0,0x00,0x83,0xc7,0x61,0x80,
 0x61,0x00,0x00,0x60,0x20,0x10,0x80,0x00,0x00,0x38,0x00,0x06,0x00,0x00,0x1e,
 0x00,0x3e,0x00,0x00,0xc0,0x80,0x83,0xc7,0x21,0x80,0xc1,0x01,0x00,0x60,0x00,
 0x10,0x00,0x01,0x00,0x38,0x00,0x00,0x00,0x00,0x1e,0x00,0x3c,0x00,0x00,0xc0,
 0xec,0x01,0xc7,0x01,0x80,0x81,0x01,0x00,0x00,0x00,0x00,0x00,0x0c,0x00,0x70,
 0x00,0x01,0x40,0x80,0x1f,0x80,0x18,0x00,0x00,0xc0,0xfe,0x01,0xc7,0x01,0x80,
 0x81,0x01,0x00,0x00,0x00,0x00,0x00,0x18,0x00,0x70,0x80,0x01,0xc0,0xe0,0x3f,
 0x80,0x1d,0x00,0x00,0xc0,0xfc,0x08,0xcf,0x01,0xc0,0x00,0x06,0x00,0x00,0x00,
 0x00,0x00,0x38,0x00,0x60,0x00,0x01,0xc0,0x61,0x78,0x00,0x1e,0x00,0x00,0xc0,
 0x7c,0x8a,0xce,0x01,0xc0,0x00,0x0e,0x00,0x80,0x01,0x00,0x00,0x70,0x00,0xc0,
 0x00,0x03,0x80,0x01,0xfc,0x00,0x1e,0x00,0x00,0xc0,0xf8,0xc5,0x9f,0x01,0x60,
 0x00,0x00,0x00,0x00,0x11,0x00,0x80,0x62,0x00,0x80,0x01,0x07,0x80,0x03,0xce,
 0x00,0x0e,0x00,0x00,0xc0,0xf0,0xe7,0x9f,0x01,0x60,0x00,0x00,0x00,0x00,0x1b,
 0x00,0x00,0xe3,0x02,0x80,0x03,0x06,0x80,0x07,0xc6,0x00,0x0e,0x00,0x00,0xc0,
 0xe0,0xff,0xf9,0x07,0x70,0x00,0x00,0x00,0x00,0x06,0x00,0x00,0x82,0x05,0x00,
 0x0f,0x0e,0x18,0x0e,0x87,0x61,0x06,0x00,0x00,0xc0,0xc0,0xff,0x78,0x07,0xf8,
 0x00,0x00,0x00,0x00,0x06,0x80,0x00,0x80,0x01,0x00,0x1e,0x0c,0x18,0x06,0x87,
 0x61,0x07,0x00,0x00,0xc0,0x00,0x00,0xe0,0x3e,0xfc,0x01,0x00,0x00,0x00,0x02,
 0x80,0x05,0x00,0x2f,0x9e,0x1e,0x18,0xe0,0x9d,0x83,0x83,0x07,0x00,0x00,0xc0,
 0x00,0x00,0xe0,0xfd,0xff,0x01,0x00,0x10,0x00,0x02,0x80,0x05,0x00,0x5e,0xde,
 0x6f,0x18,0xc0,0x9f,0x83,0x03,0x07,0x00,0x00,0xc0,0x00,0x00,0x80,0xf3,0x8f,
 0x81,0x01,0x10,0x08,0x00,0x00,0x03,0x00,0xfc,0xff,0x01,0x77,0x00,0xbf,0x01,
 0x87,0x07,0x00,0x00,0xc0,0x00,0x00,0x80,0xc7,0x87,0x81,0x01,0x10,0x0c,0x00,
 0x00,0x02,0x00,0xf8,0x7f,0x00,0x7e,0x00,0xfe,0x01,0x8e,0x07,0x00,0x00,0xc0,
 0x00,0x00,0x00,0x0e,0x00,0x83,0x01,0x10,0x03,0x00,0x00,0x02,0x00,0xc0,0x03,
 0x00,0xf0,0x01,0xfc,0x03,0xbe,0x07,0x00,0x00,0xc0,0x00,0x00,0x00,0x1e,0x0c,
 0x83,0x01,0x98,0x01,0x00,0x00,0x00,0x00,0x80,0x00,0x00,0xe0,0x01,0xfc,0x03,
 0xfc,0x07,0x00,0x00,0xc0,0x00,0x00,0x00,0x78,0x0c,0xc2,0x00,0xd8,0x00,0x40,
 0x00,0x00,0x0c,0x8c,0x00,0x01,0x00,0x03,0xf8,0x07,0xf8,0x07,0x00,0x00,0xc0,
 0x00,0x00,0x00,0x78,0x0c,0xc2,0x60,0x78,0x00,0x40,0x00,0x00,0x06,0x18,0x00,
 0x01,0x20,0x00,0xf8,0x07,0xe0,0x07,0x00,0x00,0xc0,0x00,0x00,0x00,0xf8,0x07,
 0x60,0x1c,0x38,0x00,0x40,0x18,0x60,0x06,0x50,0x00,0x01,0x60,0x00,0x18,0x0e,
 0x80,0x3f,0x00,0x00,0xc0,0x00,0x00,0x00,0xf8,0x07,0x60,0x0e,0x18,0x00,0x40,
 0x0c,0x60,0x06,0x60,0x80,0x01,0x60,0x00,0x18,0x1c,0x00,0x3e,0x00,0x00,0xc0,
 0x00,0x00,0x00,0xfc,0x87,0xa0,0x03,0x1c,0x00,0x40,0x06,0xc0,0x02,0x60,0x82,
 0x01,0x60,0x00,0x0e,0x38,0x00,0x00,0x00,0x00,0xc0,0x00,0x00,0x00,0x9e,0xe7,
 0xf1,0x01,0x0c,0x02,0x40,0x03,0x80,0x03,0x40,0x06,0x01,0x60,0x00,0x0e,0x30,
 0x00,0x00,0x00,0x00,0xc0,0x00,0x00,0x00,0x87,0x7b,0x78,0x00,0x04,0x02,0x80,
 0x01,0x80,0x01,0x00,0x18,0x01,0x60,0x00,0x1f,0x00,0x00,0x00,0x00,0x00,0xc0,
 0x00,0x00,0x00,0x83,0x7f,0x78,0x00,0x00,0x02,0xc0,0x01,0x80,0x01,0x00,0x30,
 0x01,0xc0,0x80,0x1f,0x00,0x00,0x00,0x00,0x00,0xc0,0x00,0x00,0x00,0x80,0x3f,
 0x38,0x00,0x00,0x02,0x01,0x00,0x00,0x01,0x00,0x60,0x03,0xc0,0xc0,0x19,0x00,
 0x00,0x00,0x00,0x00,0xc0,0x00,0x00,0x00,0xc0,0x3b,0x1c,0x04,0x00,0x82,0x01,
 0x00,0x00,0x00,0x00,0x60,0x63,0xc0,0xe1,0x19,0x00,0x00,0x00,0x00,0x00,0xc0,
 0x00,0x00,0x00,0xe0,0x78,0x00,0x06,0x00,0xc0,0x00,0x00,0x00,0x00,0x06,0x80,
 0xe3,0x81,0xf1,0x39,0x00,0x00,0x00,0x00,0x00,0xc0,0x00,0x00,0x00,0x40,0x70,
 0x00,0x04,0x00,0x61,0x00,0x00,0x00,0x02,0x03,0x80,0xc3,0x81,0xf9,0x39,0x00,
 0x00,0x00,0x00,0x00,0xc0,0x00,0x00,0x00,0x00,0xf0,0x00,0x06,0x00,0x31,0x00,
 0x00,0x01,0x86,0x01,0x00,0x87,0x87,0x9f,0x77,0x00,0x00,0x00,0x00,0x00,0xc0,
 0x00,0x00,0x00,0x00,0xf0,0x01,0x06,0x00,0x31,0x00,0x82,0x01,0x86,0x01,0x10,
 0x06,0x86,0x0f,0x7e,0x00,0x00,0x00,0x00,0x00,0xc0,0x00,0x00,0x00,0x00,0xf8,
 0x01,0x06,0x80,0x19,0x00,0x82,0x01,0x8c,0x01,0x10,0x00,0x9e,0x07,0x78,0x00,
 0x00,0x00,0x00,0x00,0xc0,0x00,0x00,0x00,0x00,0x98,0x03,0x03,0x88,0x0f,0x00,
 0xc6,0x00,0x88,0x01,0x10,0x00,0x1e,0x03,0x78,0x00,0x00,0x00,0x00,0x00,0xc0,
 0x00,0x00,0x00,0x00,0x9c,0x87,0x03,0x8f,0x07,0x00,0x66,0x00,0x98,0x00,0x18,
 0x00,0x7c,0x03,0xe0,0x00,0x00,0x00,0x00,0x00,0xc0,0x00,0x00,0x00,0x00,0xee,
 0x8f,0x81,0x87,0x07,0x00,0x66,0x00,0x98,0x00,0x18,0x00,0x78,0x06,0xe0,0x01,
 0x00,0x00,0x00,0x00,0xc0,0x00,0x00,0x00,0x00,0xff,0x9f,0xe1,0x80,0x03,0x00,
 0x66,0x00,0xd0,0x08,0x18,0x00,0xfe,0x06,0x80,0x01,0x00,0x00,0x00,0x00,0xc0,
 0x00,0x00,0x00,0x80,0xff,0xbc,0xe1,0x80,0x33,0x00,0x26,0x00,0xf6,0x18,0x18,
 0x00,0xde,0x07,0x80,0x01,0x00,0x00,0x00,0x00,0xc0,0x00,0x00,0x00,0xc0,0x0f,
 0xf0,0x78,0xc0,0x31,0xc0,0x36,0x00,0x62,0x10,0x18,0x80,0x87,0x0f,0x00,0x03,
 0x00,0x00,0x00,0x00,0xc0,0x00,0x00,0x00,0xe0,0x03,0xe0,0x7c,0xc0,0x31,0x60,
 0x1e,0x01,0x63,0x70,0x18,0xc0,0x03,0x0f,0x00,0x00,0x00,0x00,0x00,0x00,0xc0,
 0x00,0x00,0x00,0x70,0x00,0x60,0x3e,0xc0,0x30,0x30,0x9e,0x81,0x61,0x60,0x18,
 0xf0,0x00,0x1e,0x00,0x00,0x00,0x00,0x00,0x00,0xc0,0x00,0x00,0x00,0x70,0x00,
 0x60,0x3f,0x60,0x30,0x38,0x9e,0x81,0x61,0x60,0x38,0xf8,0x00,0x1e,0x00,0x00,
 0x00,0x00,0x00,0x00,0xc0,0x00,0x00,0x00,0x00,0x00,0xf0,0x3f,0x00,0x30,0x18,
 0x9e,0x81,0x01,0xe0,0xf8,0xff,0x00,0x1c,0x00,0x00,0x00,0x00,0x00,0x00,0xc0,
 0x00,0x00,0x00,0x00,0x00,0xf8,0x3d,0x00,0x30,0x1c,0x8e,0xc1,0x01,0xc0,0xf8,
 0xff,0x00,0x18,0x00,0x00,0x00,0x00,0x00,0x00,0xc0,0x00,0x00,0x00,0x00,0x00,
 0xf8,0xf0,0x01,0x30,0x0e,0x8e,0xc3,0x01,0x80,0xf9,0xcf,0x00,0x00,0x00,0x00,
 0x00,0x00,0x00,0x00,0xc0,0x00,0x00,0x00,0x00,0x00,0x78,0xe0,0x07,0x70,0x06,
 0x8c,0xe3,0x01,0x80,0xf9,0xc7,0x00,0x00,0x00,0x00,0x00,0x00,0x00,0x00,0xc0,
 0x00,0x00,0x00,0x00,0x00,0x7e,0x80,0x1f,0x30,0x06,0x00,0xe3,0x01,0xf0,0x19,
 0xdc,0x00,0x00,0x00,0x00,0x00,0x00,0x00,0x00,0xc0,0x00,0x00,0x00,0x00,0x00,
 0x3e,0x00,0x7f,0x30,0x07,0x00,0xe3,0x01,0xf8,0x1b,0xd8,0x00,0x00,0x00,0x00,
 0x00,0x00,0x00,0x00,0xc0,0x00,0x00,0x00,0x00,0x00,0x1f,0x00,0xfe,0x3f,0x07,
 0x00,0xe7,0xc1,0x7f,0x1b,0xf8,0x01,0x00,0x00,0x00,0x00,0x00,0x00,0x00,0xc0,
 0x00,0x00,0x00,0x00,0x00,0x0f,0x00,0xff,0xbf,0x07,0x00,0xe7,0xf1,0x1f,0x1e,
 0xf0,0x01,0x00,0x00,0x00,0x00,0x00,0x00,0x00,0xc0,0x00,0x00,0x00,0x00,0x00,
 0x04,0x00,0xe7,0xbf,0x07,0x00,0xf6,0xff,0x07,0x1e,0xe0,0x01,0x00,0x00,0x00,
 0x00,0x00,0x00,0x00,0xc0,0x00,0x00,0x00,0x00,0x00,0x00,0x00,0xe7,0x9f,0xff,
 0x01,0xf6,0xff,0x07,0x1e,0xe0,0x01,0x00,0x00,0x00,0x00,0x00,0x00,0x00,0xc0,
 0x00,0x00,0x00,0x00,0x00,0x00,0x00,0x7f,0xd8,0xff,0xff,0xff,0xff,0x03,0x1e,
 0xc0,0x01,0x00,0x00,0x00,0x00,0x00,0x00,0x00,0xc0,0x00,0x00,0x00,0x00,0x00,
 0x00,0x00,0x1b,0xd8,0xf9,0xff,0x3f,0xbc,0x03,0x1c,0xc0,0x01,0x00,0x00,0x00,
 0x00,0x00,0x00,0x00,0xc0,0x00,0x00,0x00,0x00,0x00,0x00,0x80,0x0f,0xd8,0x60,
 0x1e,0x3e,0xb8,0x03,0x18,0x80,0x01,0x00,0x00,0x00,0x00,0x00,0x00,0x00,0xc0,
 0x00,0x00,0x00,0x00,0x00,0x00,0x80,0x07,0xf8,0x60,0x18,0x1e,0xb8,0x01,0x18,
 0x80,0x01,0x00,0x00,0x00,0x00,0x00,0x00,0x00,0xc0,0x00,0x00,0x00,0x00,0x00,
 0x00,0x80,0x03,0x78,0x60,0x0c,0x1e,0xf8,0x01,0x00,0x00,0x01,0x00,0x00,0x00,
 0x00,0x00,0x00,0x00,0xc0,0x00,0x00,0x00,0x00,0x00,0x00,0x80,0x03,0x78,0x60,
 0x0e,0x1c,0xf0,0x01,0x00,0x00,0x00,0x00,0x00,0x00,0x00,0x00,0x00,0x00,0xc0,
 0x00,0x00,0x00,0x00,0x00,0x00,0xc0,0x01,0x78,0x40,0x06,0x1c,0xe0,0x01,0x00,
 0x00,0x00,0x00,0x00,0x00,0x00,0x00,0x00,0x00,0xc0,0x00,0x00,0x00,0x00,0x00,
 0x00,0xe0,0x00,0x78,0xc0,0x06,0x1c,0xe0,0x01,0x00,0x00,0x00,0x00,0x00,0x00,
 0x00,0x00,0x00,0x00,0xc0,0x00,0x00,0x00,0x00,0x00,0x00,0x60,0x00,0x3c,0xc0,
 0x07,0x1c,0xe0,0x01,0x00,0x00,0x00,0x00,0x00,0x00,0x00,0x00,0x00,0x00,0xc0,
 0x00,0x00,0x00,0x00,0x00,0x00,0x20,0x00,0x18,0x80,0x07,0x18,0xe0,0x01,0x00,
 0x00,0x00,0x00,0x00,0x00,0x00,0x00,0x00,0x00,0xc0,0x00,0x00,0x00,0x00,0x00,
 0x00,0x00,0x00,0x00,0x80,0x03,0x08,0xc0,0x01,0x00,0x00,0x00,0x00,0x00,0x00,
 0x00,0x00,0x00,0x00,0xc0,0x00,0x00,0x00,0x00,0x00,0x00,0x00,0x00,0x00,0x80,
 0x03,0x00,0xc0,0x01,0x00,0x00,0x00,0x00,0x00,0x00,0x00,0x00,0x00,0x00,0xc0,
 0x00,0x00,0x00,0x00,0x00,0x00,0x00,0x00,0x00,0x80,0x01,0x00,0x80,0x01,0x00,
 0x00,0x00,0x00,0x00,0x00,0x00,0x00,0x00,0x00,0xc0,0x00,0x00,0x00,0x00,0x00,
 0x00,0x00,0x00,0x00,0x80,0x01,0x00,0x80,0x01,0x00,0x00,0x00,0x00,0x00,0x00,
 0x00,0x00,0x00,0x00,0xc0,0x00,0x00,0x00,0x00,0x00,0x00,0x00,0x00,0x00,0x80,
 0x01,0x00,0x00,0x00,0x00,0x00,0x00,0x00,0x00,0x00,0x00,0x00,0x00,0x00,0xc0,
 0x00,0x00,0x00,0x00,0x00,0x00,0x00,0x00,0x00,0x80,0x01,0x00,0x00,0x00,0x00,
 0x00,0x00,0x00,0x00,0x00,0x00,0x00,0x00,0x00,0xc0,0x00,0x00,0x00,0x00,0x00,
 0x00,0x00,0x00,0x00,0x00,0x00,0x00,0x00,0x00,0x00,0x00,0x00,0x00,0x00,0x00,
 0x00,0x00,0x00,0x00,0xc0};
