#define image_width 99
#define image_height 83
static char image_bits[] = {
 0x00,0x00,0x00,0x00,0x00,0x04,0x00,0x00,0x00,0x00,0x00,0x00,0x00,0x00,0x00,
 0x00,0x00,0x00,0x0c,0x00,0x00,0x00,0x00,0x00,0x00,0x00,0x00,0x00,0x00,0x00,
 0x00,0x0c,0x00,0x00,0x00,0x00,0x00,0x00,0x00,0x00,0x00,0x00,0x00,0x00,0x0c,
 0x0c,0x10,0x00,0x00,0x00,0x00,0x00,0x00,0x00,0x00,0x00,0x00,0x0c,0x0c,0x18,
 0x00,0x00,0x00,0x00,0x00,0x00,0x00,0x00,0x00,0x18,0x8c,0x04,0x08,0x00,0x00,
 0x00,0x00,0x00,0x00,0x00,0x00,0x02,0x98,0x5c,0x06,0x0c,0x00,0x00,0x00,0x00,
 0x00,0x00,0x00,0x00,0x84,0x98,0x5a,0x26,0x8e,0x01,0x00,0x00,0x00,0x00,0x00,
 0x00,0x00,0x84,0xd8,0xf3,0x27,0x87,0x01,0x00,0x00,0x00,0x00,0x00,0x00,0x00,
 0x8c,0x7d,0x80,0xfd,0xc5,0x00,0x00,0x00,0x00,0x00,0x00,0x00,0x00,0x9c,0x3f,
 0x00,0x05,0xc4,0x00,0x00,0x00,0x00,0x00,0x00,0x00,0x00,0xf0,0x2f,0x80,0x05,
 0xac,0x04,0x00,0x00,0x00,0x00,0x00,0x00,0x80,0x68,0x28,0x80,0x04,0x78,0x04,
 0x01,0x00,0x00,0x00,0x00,0x00,0x40,0x1f,0x48,0x88,0x08,0x50,0x82,0x00,0x00,
 0x00,0x00,0x00,0x00,0x40,0x0e,0x88,0x18,0x88,0xc8,0xc3,0x00,0x00,0x00,0x00,
 0x00,0x00,0xc0,0x83,0x0c,0x18,0xc0,0x2c,0x73,0x00,0x00,0x00,0x00,0x00,0x00,
 0x80,0x81,0x0c,0x18,0xc0,0x24,0x3e,0x18,0x00,0x00,0x00,0x00,0x60,0xf8,0x82,
 0x01,0x10,0x20,0x20,0x30,0x1c,0x00,0x00,0x00,0x00,0xc0,0xe1,0x8c,0x02,0x24,
 0x60,0x20,0x10,0x0a,0x00,0x00,0x00,0x00,0x80,0xbf,0x11,0x02,0x24,0x50,0x00,
 0xb0,0x05,0x00,0x00,0x00,0x00,0x80,0x1d,0x01,0x05,0x00,0x48,0x00,0x61,0x02,
 0x00,0x00,0x00,0x00,0x00,0x03,0x01,0x81,0x00,0x41,0x80,0x39,0x0b,0x00,0x00,
 0x00,0x00,0x00,0x06,0x01,0x81,0x80,0x01,0xc0,0x84,0x07,0x06,0x00,0x00,0x00,
 0x00,0x06,0x01,0x41,0x81,0x01,0x70,0xc0,0x83,0x03,0x00,0x00,0x00,0xc0,0x07,
 0x20,0x40,0x00,0x82,0x41,0xe0,0xff,0x01,0x00,0x00,0x00,0x00,0x53,0x40,0x00,
 0x00,0x00,0x20,0x20,0xcc,0x00,0x00,0x00,0x00,0x00,0xc3,0xc1,0x00,0x00,0x20,
 0x20,0x00,0x60,0x00,0x00,0x00,0x00,0x00,0x61,0x42,0x02,0x00,0x84,0x00,0x00,
 0x20,0x00,0x00,0x00,0x00,0x80,0x31,0x04,0x40,0x00,0x04,0x80,0x00,0xf0,0x00,
 0x00,0x00,0x00,0xc0,0x11,0x8c,0x40,0x01,0x02,0xc0,0x00,0x31,0x00,0x00,0x00,
 0x00,0xe0,0xe9,0x09,0x00,0x20,0x00,0x50,0xe0,0x30,0x00,0x00,0x00,0x00,0xb0,
 0x3d,0x1e,0x00,0x00,0x00,0x20,0x7f,0x20,0x0e,0x00,0x00,0x00,0xf0,0x0d,0x1c,
 0x00,0x00,0x00,0x20,0x10,0xe0,0x07,0x00,0x00,0x00,0x38,0x09,0x18,0x04,0x00,
 0x00,0x20,0x08,0x3e,0x03,0x00,0x00,0x00,0x10,0x65,0x08,0x00,0x80,0x00,0x00,
 0x08,0xc0,0x01,0x00,0x00,0x00,0xd0,0x65,0x08,0x00,0x80,0x40,0x18,0x00,0x60,
 0x00,0x00,0x00,0x00,0xd0,0x05,0x1c,0x00,0x00,0x00,0x00,0x00,0x70,0x0c,0x3c,
 0x00,0x00,0x18,0x8d,0x03,0x00,0x00,0x00,0x00,0xc3,0xf8,0x03,0xe3,0x00,0x00,
 0x1c,0xc9,0x00,0x00,0x00,0x08,0x00,0x1c,0xc9,0x80,0xc0,0x03,0x00,0xa4,0x78,
 0x00,0x44,0x00,0x00,0x00,0xc2,0x80,0x60,0x7c,0x00,0x00,0xe6,0x31,0x00,0x88,
 0x00,0x00,0x00,0x01,0x80,0x30,0x20,0x00,0x00,0x3a,0x31,0x00,0x88,0x00,0x80,
 0x00,0x00,0x80,0x19,0x1e,0x00,0x00,0x0a,0x32,0x00,0x10,0x00,0x00,0x00,0x00,
 0x8c,0x0f,0x08,0x00,0x00,0x0b,0x34,0x00,0x10,0x21,0x00,0x20,0x10,0x30,0x00,
 0x0c,0x00,0x00,0x49,0x3c,0x00,0x10,0x21,0x04,0x30,0x10,0x2e,0x00,0x06,0x00,
 0x00,0x89,0x38,0x00,0x10,0x01,0x00,0x00,0x20,0x00,0x80,0x03,0x00,0x80,0x19,
 0x33,0x00,0x10,0x01,0x00,0x02,0x60,0x00,0x40,0x03,0x00,0xc0,0xf1,0x7f,0x00,
 0x10,0x00,0xff,0x81,0xc0,0x48,0x00,0x01,0x00,0xe0,0xb1,0x70,0x00,0x90,0x00,
 0x00,0x03,0xbc,0x09,0x80,0x00,0x00,0x20,0x91,0xf0,0x00,0x88,0x08,0x00,0x06,
 0x81,0x53,0xc0,0x00,0x00,0x10,0x9b,0x90,0x00,0x08,0x04,0x00,0x04,0x02,0x60,
 0x60,0x00,0x00,0x1a,0x1b,0x10,0x01,0x00,0x00,0x02,0x0c,0x81,0x70,0x40,0x00,
 0x00,0x0e,0x1b,0x08,0x02,0x00,0x00,0x04,0x08,0x81,0xc9,0x60,0x00,0x00,0xbc,
 0x17,0x08,0x00,0x50,0x00,0x08,0x10,0x03,0xa1,0x20,0x00,0x00,0xf8,0x3d,0x0c,
 0x00,0x20,0x00,0x30,0x30,0x42,0x32,0x29,0x00,0x00,0x00,0x68,0x1e,0x00,0x00,
 0x30,0x30,0x66,0x84,0x17,0x31,0x00,0x00,0x00,0xd0,0x13,0x41,0x00,0x10,0xe0,
 0x1f,0x0f,0x17,0x33,0x00,0x00,0x00,0x20,0x10,0x41,0x01,0x00,0x80,0x01,0x1c,
 0x1e,0x36,0x00,0x00,0x00,0xc0,0x82,0xc0,0x80,0x00,0x22,0x10,0x10,0x3c,0x3c,
 0x00,0x00,0x00,0xc0,0x83,0x46,0x80,0x84,0xc2,0x10,0x08,0x24,0x70,0x00,0x00,
 0x00,0xe0,0x03,0x61,0x80,0x82,0x80,0x10,0x08,0x42,0x00,0x00,0x00,0x00,0x30,
 0xcd,0x20,0x00,0x01,0x01,0x14,0x08,0x07,0x00,0x00,0x00,0x00,0x00,0x47,0x00,
 0x10,0x00,0x01,0x18,0x88,0x05,0x00,0x00,0x00,0x00,0x80,0x0c,0x02,0x08,0x00,
 0x20,0x90,0xd1,0x05,0x00,0x00,0x00,0x00,0x00,0x0c,0x02,0x05,0x10,0x12,0x30,
 0x73,0x0f,0x00,0x00,0x00,0x00,0x00,0x1c,0x02,0x05,0x10,0x12,0x04,0x36,0x0c,
 0x00,0x00,0x00,0x00,0x00,0x36,0x31,0x03,0x0a,0x04,0x04,0x1e,0x08,0x00,0x00,
 0x00,0x00,0x00,0x7f,0x09,0x01,0x0a,0x0c,0x04,0x2e,0x10,0x00,0x00,0x00,0x00,
 0x80,0xc3,0x8c,0x85,0x06,0x48,0x04,0x33,0x10,0x00,0x00,0x00,0x00,0xc0,0x80,
 0x86,0x44,0x16,0x89,0xc4,0x60,0x00,0x00,0x00,0x00,0x00,0x00,0xc0,0x07,0x44,
 0x16,0x81,0xfc,0x60,0x00,0x00,0x00,0x00,0x00,0x00,0xc0,0x1c,0x24,0x92,0x01,
 0xbd,0x00,0x00,0x00,0x00,0x00,0x00,0x00,0xe0,0x70,0x24,0x90,0xc1,0xe5,0x00,
 0x00,0x00,0x00,0x00,0x00,0x00,0x70,0xe0,0x37,0xb0,0xf9,0xc5,0x01,0x00,0x00,
 0x00,0x00,0x00,0x00,0x20,0xb0,0x37,0xe0,0x3f,0x86,0x01,0x00,0x00,0x00,0x00,
 0x00,0x00,0x00,0xf0,0xfc,0xff,0x1f,0x86,0x01,0x00,0x00,0x00,0x00,0x00,0x00,
 0x00,0x30,0x8c,0x66,0x14,0x04,0x01,0x00,0x00,0x00,0x00,0x00,0x00,0x00,0x10,
 0x8c,0x62,0x1c,0x00,0x01,0x00,0x00,0x00,0x00,0x00,0x00,0x00,0x18,0x8c,0x62,
 0x18,0x00,0x00,0x00,0x00,0x00,0x00,0x00,0x00,0x00,0x08,0x86,0x63,0x18,0x00,
 0x00,0x00,0x00,0x00,0x00,0x00,0x00,0x00,0x00,0x00,0x01,0x18,0x00,0x00,0x00,
 0x00,0x00,0x00,0x00,0x00,0x00,0x00,0x00,0x01,0x10,0x00,0x00,0x00,0x00,0x00,
 0x00,0x00,0x00,0x00,0x00,0x00,0x01,0x00,0x00,0x00,0x00,0x00,0x00,0x00};
