#define image_width 49
#define image_height 41
static char image_bits[] = {
 0x00,0x00,0x20,0x00,0x00,0x00,0x00,0x00,0x00,0x20,0x00,0x00,0x00,0x00,0x00,
 0x00,0x20,0x02,0x00,0x00,0x00,0x00,0x00,0xe4,0x22,0x00,0x00,0x00,0x00,0x20,
 0xdc,0xb7,0x00,0x00,0x00,0x00,0x60,0x07,0xa3,0x00,0x00,0x00,0x00,0x80,0x00,
 0xe2,0x00,0x00,0x00,0x00,0x28,0x40,0xaa,0x09,0x00,0x00,0x00,0x10,0x42,0x08,
 0x07,0x00,0x00,0x80,0x29,0x20,0x4c,0x34,0x00,0x00,0x00,0x17,0x03,0x00,0x1d,
 0x00,0x00,0x00,0x12,0x01,0x81,0x3a,0x01,0x00,0x80,0x03,0x08,0x00,0xf8,0x00,
 0x00,0x00,0x99,0x00,0x44,0x04,0x00,0x00,0x00,0x25,0x08,0x80,0xc0,0x00,0x00,
 0x00,0x59,0x00,0x22,0x4c,0x00,0x00,0xc0,0x43,0x00,0x40,0xc0,0x01,0x00,0x40,
 0x0b,0x80,0x04,0x82,0x00,0x00,0x40,0x63,0x00,0x00,0xc0,0x73,0x00,0x20,0x09,
 0x00,0x02,0xb2,0x88,0x01,0xe0,0x05,0x00,0x00,0x80,0x44,0x00,0x10,0x04,0x04,
 0x08,0xa0,0x21,0x00,0x90,0x00,0x14,0x00,0x14,0x10,0x00,0x58,0x07,0x14,0x80,
 0x00,0x18,0x00,0x58,0x0c,0x00,0x10,0x0c,0x08,0x00,0x54,0x14,0x20,0x21,0x40,
 0x08,0x00,0x42,0x00,0x04,0x02,0x81,0x04,0x00,0x6c,0x02,0x00,0x40,0x50,0x06,
 0x00,0x00,0x94,0x01,0x10,0x62,0x07,0x00,0x80,0xa1,0x20,0x00,0x42,0x0c,0x00,
 0x40,0x0b,0x10,0x01,0x12,0x00,0x00,0x00,0x02,0x00,0xc4,0x28,0x00,0x00,0x00,
 0x06,0x43,0x00,0x25,0x00,0x00,0x00,0x1f,0x01,0x00,0x07,0x00,0x00,0x80,0x20,
 0x6a,0x8b,0x04,0x00,0x00,0x00,0x68,0x42,0x61,0x00,0x00,0x00,0x00,0x8c,0x47,
 0x9d,0x00,0x00,0x00,0x00,0xc0,0xfe,0x17,0x00,0x00,0x00,0x00,0x40,0x82,0x02,
 0x00,0x00,0x00,0x00,0x00,0x92,0x02,0x00,0x00,0x00,0x00,0x00,0x10,0x00,0x00,
 0x00,0x00};
