/* XPM */
static char * deny[] = {
"50 50 68 1",
" 	c None",
".	c #E81212",
"+	c #DF1111",
"@	c #D41010",
"#	c #E71111",
"$	c #2D0303",
"%	c #A10C0C",
"&	c #E41111",
"*	c #E01111",
"=	c #8D0B0B",
"-	c #DB1010",
";	c #C30F0F",
">	c #320303",
",	c #660808",
"'	c #E61111",
")	c #DE1111",
"!	c #780909",
"~	c #210202",
"{	c #410505",
"]	c #830A0A",
"^	c #E31111",
"/	c #840A0A",
"(	c #290303",
"_	c #8D0A0A",
":	c #CC0F0F",
"<	c #630707",
"[	c #190202",
"}	c #A80D0D",
"|	c #E51111",
"1	c #D81010",
"2	c #9B0C0C",
"3	c #480505",
"4	c #A40C0C",
"5	c #DC1111",
"6	c #B70E0E",
"7	c #4A0505",
"8	c #C90F0F",
"9	c #DD1111",
"0	c #E21111",
"a	c #B30D0D",
"b	c #590707",
"c	c #A70D0D",
"d	c #340404",
"e	c #640707",
"f	c #A20C0C",
"g	c #9A0C0C",
"h	c #9A0B0B",
"i	c #A60C0C",
"j	c #C10F0F",
"k	c #D31010",
"l	c #390404",
"m	c #810A0A",
"n	c #BE0E0E",
"o	c #D21010",
"p	c #660707",
"q	c #B10D0D",
"r	c #BC0E0E",
"s	c #DB1111",
"t	c #960B0B",
"u	c #770909",
"v	c #CB0F0F",
"w	c #5E0707",
"x	c #C50F0F",
"y	c #C80F0F",
"z	c #580606",
"A	c #E11111",
"B	c #7A0909",
"C	c #750909",
"                                                  ",
"                                                  ",
"                                                  ",
"                                                  ",
"                                                  ",
"                                                  ",
"      ......                                      ",
"     .........                                    ",
"     ..........                                   ",
"     ...........                                  ",
"     .............                 ......         ",
"     .+............               ........        ",
"      .@#...........           ...........        ",
"       $%&..........         ............*        ",
"         =-...........     ..............;>       ",
"          ,;'..........  ...............)!~       ",
"           {]^.........................+/(        ",
"             _&......................':<~[        ",
"              }|...................'123[[         ",
"               4|...............#56/7~[           ",
"                8.............#923[[[]            ",
"               ..............0ab~[[               ",
"              ..............'cd[[                 ",
"             ................+e                   ",
"            ...................                   ",
"            .........#'.......#.                  ",
"           .........|%f|........                  ",
"           ........|%$$%|........                 ",
"          ........|g$[  h'......#.                ",
"         ........#i$[    j.........               ",
"         ........kl[      *........               ",
"        ........|m[       .#........              ",
"        ........n$         o.......#.             ",
"       ........*p[          *........             ",
"       ........q$           .|........            ",
"       .......*b[            r#......s            ",
"       .......j~              9......|            ",
"       ......|t[              .'.....^u           ",
"        .....vw                x.....yz           ",
"         xAAxB$                 r&#&yC$           ",
"          uuz$                   zuuz$            ",
"           [[                     [[[             ",
"                                                  ",
"                                                  ",
"                                                  ",
"                                                  ",
"                                                  ",
"                                                  ",
"                                                  ",
"                                                  "};
