/* XPM */
static char * deny_always_xpm[] = {
"50 50 98 2",
"  	c None",
". 	c #E81212",
"+ 	c #E71212",
"@ 	c #E61212",
"# 	c #E21111",
"$ 	c #E51111",
"% 	c #9D0C0C",
"& 	c #9E0C0C",
"* 	c #DD1111",
"= 	c #E31111",
"- 	c #9F0C0C",
"; 	c #E01111",
"> 	c #940B0B",
", 	c #760909",
"' 	c #B90E0E",
") 	c #DF1111",
"! 	c #B80E0E",
"~ 	c #4F0606",
"{ 	c #5B0707",
"] 	c #AF0D0D",
"^ 	c #E11111",
"/ 	c #B70E0E",
"( 	c #510606",
"_ 	c #230303",
": 	c #BB0E0E",
"< 	c #CF1010",
"[ 	c #950B0B",
"} 	c #450505",
"| 	c #1C0202",
"1 	c #BC0E0E",
"2 	c #C70F0F",
"3 	c #8E0B0B",
"4 	c #540606",
"5 	c #2C0303",
"6 	c #D91111",
"7 	c #D71010",
"8 	c #A90D0D",
"9 	c #5A0707",
"0 	c #210202",
"a 	c #190202",
"b 	c #430505",
"c 	c #D01010",
"d 	c #730909",
"e 	c #320404",
"f 	c #320303",
"g 	c #230202",
"h 	c #5E0606",
"i 	c #C60F0F",
"j 	c #D31010",
"k 	c #D91010",
"l 	c #E71111",
"m 	c #730808",
"n 	c #A70C0C",
"o 	c #C10F0F",
"p 	c #500606",
"q 	c #240303",
"r 	c #B60D0D",
"s 	c #C80F0F",
"t 	c #590606",
"u 	c #1D0202",
"v 	c #6C0808",
"w 	c #1F0202",
"x 	c #E41111",
"y 	c #E41212",
"z 	c #A60C0C",
"A 	c #3E0505",
"B 	c #D11010",
"C 	c #600707",
"D 	c #A00C0C",
"E 	c #350404",
"F 	c #E61111",
"G 	c #1E0202",
"H 	c #CB0F0F",
"I 	c #880A0A",
"J 	c #DB1111",
"K 	c #910B0B",
"L 	c #CD0F0F",
"M 	c #4C0505",
"N 	c #CD1010",
"O 	c #A50C0C",
"P 	c #470505",
"Q 	c #CC0F0F",
"R 	c #D81010",
"S 	c #B10D0D",
"T 	c #560606",
"U 	c #C40F0F",
"V 	c #CE1010",
"W 	c #3B0404",
"X 	c #A30C0C",
"Y 	c #670707",
"Z 	c #5F0707",
"` 	c #4E0505",
" .	c #AB0D0D",
"..	c #840A0A",
"+.	c #6B0808",
"@.	c #C50F0F",
"#.	c #620707",
"$.	c #410404",
"                                                                                                    ",
"                                                                                                    ",
"                                                                                                    ",
"                                                                                                    ",
"                                                                                                    ",
"    . . . . . .                                                                                     ",
"    . . . . . . . .                                                                                 ",
"    . . . . . . . . .                                                                               ",
"    . + . . . . . . . . .                           . . . . .                                       ",
"    @ # $ . . . . . . . . .                       . . . . . . .                                     ",
"      % & * . . . . . . . .                 . . . . . . . . + =                                     ",
"          - ; . . . . . . . .           . . . . . . . . . . # >                                     ",
"            , ' ) . . . . . . . .   . . . . . . . . . . . + ! ~                                     ",
"              { ] ) . . . . . . . . . . . . . . . . . . ^ / ( _                                     ",
"                  : + . . . . . . . . . . . . . . . $ < [ } |                                       ",
"                    1 + . . . . . . . . . . . . # 2 3 4 5                                           ",
"                      6 . . . . . . . . . + 7 8 9 0 a b                                             ",
"                    . . . . . . . . . . . c d e f g                                                 ",
"                  . . . . . . . . . . . . < h [ i .                                                 ",
"                . . . . . . . . . . . . . + j . . . .                                               ",
"              . . . . . . . $ k ^ . . . . . l . . . . . .                           . . . . .       ",
"              . . . . . . + ! m n ^ . . . . . . . . . . . .                       . . . . . . .     ",
"            . . . . . . + o p q   r + . . . . . . . . . . .                 . . . . . . . . + =     ",
"          . . . . . . . s t u       < . . . . . . . . . . . .           . . . . . . . . . . # >     ",
"          . . . . . . 6 v w           x . . . . . . . . . . . . .   . . . . . . . . . . . + ! ~     ",
"        . . . . . . y z A             = x . . . . . . . . . . . . . . . . . . . . . . . ^ / ( _     ",
"        . . . . . . B C                 ; + . . . . . . . . . . . . . . . . . . . . $ < [ } |       ",
"        . . . . . . D E                 @ F . . . . . + . . . . . . . . . . . . # 2 3 4 5           ",
"        . . . . . * }                     1 F . . . . y = . . . . . . . . + 7 8 9 0 a b             ",
"        . . . . + : G                       = . . . . @ H ) . . . . . . . c d e | a                 ",
"        . . . . * I                         ; J . . . ; K L . . . . . . . < M                       ",
"          N # 6 O P                           Q R l ; S T U . . . . . . . + V                       ",
"            d 9 W                             . X Y Z `  .. $ k ^ . . . . . l .                     ",
"              a                               . . ..+.% . + ! m n ^ . . . . . .                     ",
"                                            . . . . . . + o p q   r + . . . . . .                   ",
"                                          . . . . . . . s t u       < . . . . . . .                 ",
"                                          . . . . . . 6 v w           x . . . . . .                 ",
"                                        . . . . . . y z A             = x . . . . . .               ",
"                                        . . . . . . B C                 ; + . . . . . .             ",
"                                        . . . . . . D E                 @ F . . . . . .             ",
"                                        . . . . . * }                     1 F . . . . y             ",
"                                        . . . . + : G                       = . . . . @ :           ",
"                                        . . . . * I                         ; J . . . ; K           ",
"                                          N # 6 O P                           @.R l ; S T           ",
"                                            d 9 W                                 #.Z $.            ",
"                                              a                                     a               ",
"                                                                                                    ",
"                                                                                                    ",
"                                                                                                    ",
"                                                                                                    "};
