/* XPM */
static char * permit_always_xpm[] = {
"43 42 103 2",
"  	c None",
". 	c #4CEA12",
"+ 	c #4BE316",
"@ 	c #4BD51D",
"# 	c #4ACA23",
"$ 	c #4AC526",
"% 	c #4AC625",
"& 	c #4ACD21",
"* 	c #4BD91B",
"= 	c #4CE813",
"- 	c #4CE614",
"; 	c #4AC923",
"> 	c #48A239",
", 	c #479640",
"' 	c #478D45",
") 	c #478947",
"! 	c #478A46",
"~ 	c #479043",
"{ 	c #48993E",
"] 	c #49AF32",
"^ 	c #4BDA1A",
"/ 	c #489F3B",
"( 	c #49B92C",
"_ 	c #4BE216",
": 	c #4BD61C",
"< 	c #489F3A",
"[ 	c #49BD2A",
"} 	c #48AB34",
"| 	c #49AE32",
"1 	c #4BE215",
"2 	c #4BDE19",
"3 	c #489B3D",
"4 	c #478A47",
"5 	c #4BE713",
"6 	c #49B62D",
"7 	c #4CE414",
"8 	c #4ACE20",
"9 	c #4BE315",
"0 	c #4CE713",
"a 	c #48B62E",
"b 	c #4BDC19",
"c 	c #4BD11F",
"d 	c #479341",
"e 	c #49C227",
"f 	c #49B72D",
"g 	c #48B031",
"h 	c #49B62E",
"i 	c #478A45",
"j 	c #4AD71B",
"k 	c #49BD29",
"l 	c #4CE316",
"m 	c #48A13A",
"n 	c #49BF28",
"o 	c #49C724",
"p 	c #49BA2B",
"q 	c #4BDF18",
"r 	c #479142",
"s 	c #47983D",
"t 	c #4BE116",
"u 	c #4BDD19",
"v 	c #478B46",
"w 	c #478946",
"x 	c #4CE415",
"y 	c #479540",
"z 	c #49B031",
"A 	c #48A03A",
"B 	c #49B82D",
"C 	c #49B230",
"D 	c #4AC824",
"E 	c #4CE714",
"F 	c #49B330",
"G 	c #478F43",
"H 	c #4ACB22",
"I 	c #4CE216",
"J 	c #48A836",
"K 	c #489E3A",
"L 	c #4BE813",
"M 	c #4AC227",
"N 	c #49AE33",
"O 	c #4BD71C",
"P 	c #48983F",
"Q 	c #4CE812",
"R 	c #49B82C",
"S 	c #4BD41E",
"T 	c #4BDE18",
"U 	c #489D3C",
"V 	c #4BD020",
"W 	c #4CE515",
"X 	c #4CE912",
"Y 	c #4BE117",
"Z 	c #4ABD2A",
"` 	c #489540",
" .	c #49AD33",
"..	c #4BD21F",
"+.	c #4AC327",
"@.	c #48A437",
"#.	c #4AC724",
"$.	c #4AD41D",
"%.	c #4AD020",
"&.	c #48A835",
"*.	c #4ACE21",
"=.	c #4AD31E",
"-.	c #4AD21E",
"                                                                                      ",
"                                                                                      ",
"                                                                                      ",
"                                                                                      ",
"                            . . . . . .                                               ",
"                      . . . . . . . . . . . .                                         ",
"                  . . . . . . . . . . . . . . . .                                     ",
"                . . . . . + @ # $ % & * = . . . . .                                   ",
"              . . . . - ; > , ' ) ! ~ { ] @ . . . . .                                 ",
"            . . . . ^ / ) ) ) ) )   ) ) ) ! ( _ . . . .                               ",
"          . . . . : < ) )                 [ } | = . . . 1                             ",
"        . . . . 2 3 4 )               . . . 5 6 6 - . . 7 8 9                         ",
"        . . . 0 ] ) )             . . . . . . . a # . . . ; b . .                     ",
"        . . . c d )             . . . . . + @ # e f - . . _ g . . .                   ",
"      . . . = h 4             . . . . - ; > , ' ) i j . . . k . . . .                 ",
"      . . . l m )           . . . . ^ / ) ) ) ) )   n . . . o p . . . .               ",
"      . . . q r           . . . . : < ) )             . . . : s = . . . t             ",
"      . . . u v         . . . . 2 3 4 )               . . . u w h - . . x [           ",
"      . . . u v         . . . 0 ] ) )                 . . . u ) y # . . . ;           ",
"      . . . q r         . . . c d )                   . . . : )   z - . . _ A         ",
"      . . . l m       . . . = h 4                   . . . . % )     ^ . . . B         ",
"      . . . = h       . . . l m )                   . . . . C )     $ . . . D         ",
"      * = . . c       . . . q r                     . . . _ 3 )       . . . : )       ",
"        E . . 0 F     . . . u v                   . . . . ; G         . . . u )       ",
"        H . . . q     . . . u v                   . . . I J )         . . . u )       ",
"        K * . . . L   . . . q r                 . . . . M ! )         . . . : )       ",
"          N x . . . . . . . l m             . . . . . O P )         . . . . % )       ",
"            C + . . . . . . Q R           . . . . . S 3 )           . . . . C )       ",
"              C I . . . . . . t T . . . . . . . . O U )             . . . _ 3 )       ",
"                m V W . . . . . . . . . . . X Y Z ` )             . . . . ; G         ",
"                  r  ...- . . . . . . . . Y +.@.) )               . . . I J )         ",
"                    ) r U h #.$.^ * %.M } P ' ) )               . . . . M ! )         ",
"                      ) ! w ) ) ) ) ) ) ) ) ) )             . . . . . O P )           ",
"                          ) &.*.=.=.=.-.H                 . . . . . S 3 )             ",
"                              C I . . . . . . . . . . . . . . . . O U )               ",
"                                m V W . . . . . . . . . . . X Y Z ` )                 ",
"                                  r  ...- . . . . . . . . Y +.@.) )                   ",
"                                    ) r U h #.$.^ * %.M } P ' ) )                     ",
"                                      ) ) ) ) ) ) ) ) ) ) ) ) )                       ",
"                                                                                      ",
"                                                                                      ",
"                                                                                      "};
