/* XPM */
static char * permit_xpm[] = {
"50 50 49 1",
" 	c None",
".	c #4CEA12",
"+	c #4BDF17",
"@	c #49C128",
"#	c #48A835",
"$	c #47973F",
"%	c #478C44",
"&	c #478947",
"*	c #4BD81B",
"=	c #48AB33",
"-	c #49B82C",
";	c #4BE613",
">	c #48A636",
",	c #4BE713",
"'	c #48A039",
")	c #4BDD18",
"!	c #49BC2A",
"~	c #49BD2A",
"{	c #479241",
"]	c #478A46",
"^	c #49B92C",
"/	c #49B32F",
"(	c #4BDC19",
"_	c #4BE813",
":	c #478D44",
"<	c #489E3B",
"[	c #4AC923",
"}	c #49B72D",
"|	c #49B031",
"1	c #4ACA23",
"2	c #489D3B",
"3	c #4BDA1A",
"4	c #479042",
"5	c #4BE315",
"6	c #4BE912",
"7	c #478B45",
"8	c #48A736",
"9	c #49C227",
"0	c #49B62E",
"a	c #48A239",
"b	c #49B52E",
"c	c #4BE216",
"d	c #478A45",
"e	c #49B130",
"f	c #4AD41D",
"g	c #47963F",
"h	c #48AF32",
"i	c #4AC426",
"j	c #4BE017",
"                                                  ",
"                                                  ",
"                                                  ",
"                                                  ",
"                    .........                     ",
"                 ...............                  ",
"               ...................                ",
"             .......................              ",
"            .........................             ",
"          .........+@#$%&%$#@+.........           ",
"         ........*=&&&&&&&&&&&=*........          ",
"        ........-&&&&&&&& &&&&&&-........         ",
"        ......;>&&&&           &&>;......         ",
"       ......,'&&&               &',.....)        ",
"      .......#&&&                 &#......!       ",
"      ......~&&&                   &~......{      ",
"     ......+]&&                     ]+.....^      ",
"     ....../&&                       /.....(&     ",
"     ....._:&&                       :_.....<     ",
"     .....[&&                         [.....}     ",
"    ......|&&                         |.....1&    ",
"    ......2&                           .....3&    ",
"    ......4&                           .....5&    ",
"    ......]&                           .....6&    ",
"    ......]&                           .....6&    ",
"    ......4&                           .....5&    ",
"    ......2&                           .....3&    ",
"    ......|&                           .....1&    ",
"     .....[&                          ......}&    ",
"     ....._:                          ......<&    ",
"     (...../                          .....(&&    ",
"     ^.....+]                        ......^&&    ",
"      ......~                       .......{&     ",
"      !......#                      ......!&&     ",
"      7).....,                     ......)7&&     ",
"       8......;                   .......8&&      ",
"       &^.......                 .......^&&&      ",
"        &9........             ........9&&&       ",
"         &@..........       ..........@&&&        ",
"          &0.........................0&&&         ",
"           &a*.....................*a&&&          ",
"            &&bc.................cb&&&&           ",
"             &&def.............fed&&&&            ",
"               &&&ghifj,.,jfihg&&&&&              ",
"                &&&&&&&&&&&&&&&&&&&               ",
"                   &&&&&&&&&&&&&                  ",
"                                                  ",
"                                                  ",
"                                                  ",
"                                                  "};
