/* XPM */
static char * skull_xpm[] = {
"30 30 331 2",
"  	c None",
". 	c #BFC1BE",
"+ 	c #C6C8C5",
"@ 	c #BBC0BC",
"# 	c #8F9490",
"$ 	c #636864",
"% 	c #434844",
"& 	c #2A2F2B",
"* 	c #171C18",
"= 	c #161714",
"- 	c #141513",
"; 	c #191A17",
"> 	c #1E1F1D",
", 	c #353634",
"' 	c #5D5E5C",
") 	c #979996",
"! 	c #A2A7A1",
"~ 	c #393E3A",
"{ 	c #1C211D",
"] 	c #111612",
"^ 	c #0D120E",
"/ 	c #050906",
"( 	c #0F1410",
"_ 	c #0E0E0C",
": 	c #0C0C0A",
"< 	c #10100E",
"[ 	c #121210",
"} 	c #292A28",
"| 	c #828481",
"1 	c #D3D5D2",
"2 	c #E0E5E0",
"3 	c #848984",
"4 	c #20241F",
"5 	c #080C09",
"6 	c #0A0E0B",
"7 	c #0B0F0C",
"8 	c #0D110E",
"9 	c #0E120F",
"0 	c #0B0B09",
"a 	c #121211",
"b 	c #111110",
"c 	c #0C0C0B",
"d 	c #0E0E0D",
"e 	c #11110F",
"f 	c #0F100F",
"g 	c #616361",
"h 	c #DFE1DE",
"i 	c #F7F9F6",
"j 	c #969A97",
"k 	c #313632",
"l 	c #0D0F0E",
"m 	c #0E0E0E",
"n 	c #0F0B10",
"o 	c #100E11",
"p 	c #121112",
"q 	c #848584",
"r 	c #E4E6E3",
"s 	c #C6CBC7",
"t 	c #2E332F",
"u 	c #4E534F",
"v 	c #4D524E",
"w 	c #0F0A10",
"x 	c #141215",
"y 	c #050506",
"z 	c #2D2E2D",
"A 	c #ACAEAB",
"B 	c #EDF1EC",
"C 	c #696E6A",
"D 	c #272C28",
"E 	c #707571",
"F 	c #1E231F",
"G 	c #0F0F0F",
"H 	c #151116",
"I 	c #110F12",
"J 	c #0B0B0A",
"K 	c #535552",
"L 	c #CDD0CC",
"M 	c #323733",
"N 	c #292E2A",
"O 	c #727773",
"P 	c #282D29",
"Q 	c #101010",
"R 	c #100C11",
"S 	c #0E0C0F",
"T 	c #0D0D0D",
"U 	c #111111",
"V 	c #2B2D2A",
"W 	c #B2B5B1",
"X 	c #7B807C",
"Y 	c #191E1A",
"Z 	c #646965",
"` 	c #100B11",
" .	c #0D0C0D",
"..	c #10100F",
"+.	c #232522",
"@.	c #B4B8B3",
"#.	c #777C78",
"$.	c #232824",
"%.	c #6E736F",
"&.	c #0D100E",
"*.	c #0C0F0D",
"=.	c #0A0D0B",
"-.	c #101110",
";.	c #110E11",
">.	c #0B0A0B",
",.	c #131313",
"'.	c #0A0B09",
").	c #151714",
"!.	c #ADB0AC",
"~.	c #7E837F",
"{.	c #2C312D",
"].	c #5D625E",
"^.	c #3F4440",
"/.	c #0C110D",
"(.	c #272B27",
"_.	c #353A36",
":.	c #1D221E",
"<.	c #0E130F",
"[.	c #0F110E",
"}.	c #0E100D",
"|.	c #161815",
"1.	c #1F211E",
"2.	c #131512",
"3.	c #0D0F0C",
"4.	c #0A0C09",
"5.	c #10120F",
"6.	c #1A1C19",
"7.	c #A6A8A5",
"8.	c #8C918D",
"9.	c #888D89",
"0.	c #131814",
"a.	c #060B07",
"b.	c #303531",
"c.	c #878C88",
"d.	c #BFC4C0",
"e.	c #D2D6D3",
"f.	c #9FA4A0",
"g.	c #1E201D",
"h.	c #757774",
"i.	c #C1C2C0",
"j.	c #ACADAB",
"k.	c #565855",
"l.	c #121411",
"m.	c #111210",
"n.	c #AAACA9",
"o.	c #A7ACA8",
"p.	c #484D49",
"q.	c #6C716D",
"r.	c #0B100C",
"s.	c #2B302C",
"t.	c #C8CDC9",
"u.	c #EDF2EE",
"v.	c #787A77",
"w.	c #E0E2DF",
"x.	c #E1E2E0",
"y.	c #5E605D",
"z.	c #171916",
"A.	c #858784",
"B.	c #1D1F1C",
"C.	c #ADAFAC",
"D.	c #C7CCC8",
"E.	c #717672",
"F.	c #090E0A",
"G.	c #6B706C",
"H.	c #ECF1ED",
"I.	c #F6FAF7",
"J.	c #929793",
"K.	c #0B0D0A",
"L.	c #7D7F7C",
"M.	c #262825",
"N.	c #333532",
"O.	c #C1C3C0",
"P.	c #444945",
"Q.	c #848985",
"R.	c #EFF4F0",
"S.	c #090B08",
"T.	c #0D0F0D",
"U.	c #80827F",
"V.	c #9B9D9A",
"W.	c #3A3C39",
"X.	c #8A8C89",
"Y.	c #666865",
"Z.	c #E7E9E6",
"`.	c #797E7A",
" +	c #8E938F",
".+	c #161B17",
"++	c #6F7470",
"@+	c #F2F6F2",
"#+	c #EEF2EE",
"$+	c #C3C7C4",
"%+	c #373C38",
"&+	c #4C4E4B",
"*+	c #676966",
"=+	c #191B18",
"-+	c #EFF1EE",
";+	c #F0F2EF",
">+	c #B0B1AF",
",+	c #444643",
"'+	c #D9DBD8",
")+	c #F1F3F0",
"!+	c #CDD2CE",
"~+	c #ADB2AE",
"{+	c #999B98",
"]+	c #E1E3E0",
"^+	c #E6E8E5",
"/+	c #B4B6B3",
"(+	c #4E504D",
"_+	c #959694",
":+	c #CACBC9",
"<+	c #373936",
"[+	c #3E403D",
"}+	c #989A97",
"|+	c #C5C7C4",
"1+	c #BABCB9",
"2+	c #696B68",
"3+	c #1B1D1A",
"4+	c #747673",
"5+	c #E2E4E1",
"6+	c #F3F8F4",
"7+	c #808581",
"8+	c #272926",
"9+	c #464845",
"0+	c #50524F",
"a+	c #1E201E",
"b+	c #111310",
"c+	c #ECEEEB",
"d+	c #6C6E6B",
"e+	c #151715",
"f+	c #292B28",
"g+	c #484A47",
"h+	c #181D19",
"i+	c #0A0F0B",
"j+	c #070C08",
"k+	c #454744",
"l+	c #ABADAA",
"m+	c #222422",
"n+	c #898B88",
"o+	c #949995",
"p+	c #121613",
"q+	c #202521",
"r+	c #0D0E0C",
"s+	c #656764",
"t+	c #8D8F8C",
"u+	c #B1B3B0",
"v+	c #0E0F0D",
"w+	c #10110F",
"x+	c #222421",
"y+	c #585A57",
"z+	c #9FA19E",
"A+	c #959A96",
"B+	c #B0B5B1",
"C+	c #B9BEBA",
"D+	c #797B78",
"E+	c #1C1E1B",
"F+	c #070806",
"G+	c #2E302D",
"H+	c #2B2D2B",
"I+	c #1D1E1C",
"J+	c #343633",
"K+	c #0C0E0B",
"L+	c #4B4D4A",
"M+	c #B9BBB8",
"N+	c #DADCD9",
"O+	c #D2D7D3",
"P+	c #AFB4B0",
"Q+	c #E9EBE8",
"R+	c #8B8D8A",
"S+	c #282A27",
"T+	c #353734",
"U+	c #DCDEDB",
"V+	c #CED0CD",
"W+	c #EBEDEA",
"X+	c #A0A5A1",
"Y+	c #101210",
"Z+	c #3F413E",
"`+	c #A8AAA7",
" @	c #AAAFAB",
".@	c #525753",
"+@	c #A9AEAA",
"@@	c #DEE0DD",
"#@	c #E5E7E4",
"$@	c #A7A9A6",
"%@	c #383A37",
"&@	c #6E706D",
"*@	c #70726F",
"=@	c #959794",
"-@	c #585D59",
";@	c #1B201C",
">@	c #CFD4D0",
",@	c #414642",
"'@	c #232523",
")@	c #B7B9B6",
"!@	c #555754",
"~@	c #8F918E",
"{@	c #595B58",
"]@	c #4F514E",
"^@	c #767875",
"/@	c #D2D4D1",
"(@	c #8A8F8B",
"_@	c #565B57",
":@	c #929491",
"<@	c #EEF0ED",
"[@	c #BDBFBC",
"}@	c #AFB1AE",
"|@	c #9EA09D",
"1@	c #717370",
"2@	c #939592",
"3@	c #BEC0BD",
"4@	c #555A56",
"5@	c #CFD0CE",
"6@	c #D1D3D0",
"7@	c #B6B8B5",
"8@	c #E9EAE8",
"9@	c #8E908D",
"0@	c #C8CAC7",
"a@	c #2A2E2B",
"b@	c #8C908C",
"c@	c #A5A7A4",
"d@	c #616360",
"e@	c #5A5C59",
"f@	c #3C3E3B",
"g@	c #111511",
"h@	c #5C615D",
"i@	c #313330",
"j@	c #2C2D2B",
"k@	c #242623",
"l@	c #181A17",
"m@	c #121311",
"n@	c #080A07",
"o@	c #1C1E1C",
"p@	c #B2B4B1",
"                                    . +                     ",
"                  @ # $ % & * = - ; > , ' )                 ",
"                ! ~ { ] ^ / ( _ : _ < < [ } | 1             ",
"            2 3 4 5 6 7 8 9 8 0 a b c d e a f g h i         ",
"            j k % l l l l l l m m m m m m n o p q r         ",
"          s t u v l l l l l l m m m m m m w x y z A B       ",
"          C D E F l l l l l l G G G G G G H I p J K L       ",
"          M N O P l l l l l l Q Q Q Q Q Q R S T U V W       ",
"        X D Y Z N l l l l l l Q Q Q Q Q Q ` I  ...+.@.      ",
"        #.$.D %.$.&.*.=.l &.*.G U -...G -.;.>.,.'.).!.      ",
"        ~.{.].^././.( (._.:.<.[.}.[.|.1.2.3.4.5.3.6.7.      ",
"        8._.9.0.a.b.c.d.e.f.P [.}.g.h.i.j.k.2.l.).m.n.      ",
"        o.p.q.r.s.t.      u.8.}.[.v.w.    x.y.z.A.B.C.      ",
"        D.p.E.F.G.H.      I.J.K.B.7.        L.M.| N.O.      ",
"          P.Q./.f.        R.#.S.T.U.        V.W.X.Y.Z.      ",
"          `. +.+++@+    #+$+%+&+*+=+O.-+  ;+>+,+'+r )+      ",
"          !+~+{ { {+]+^+/+(+l._+:+<+[+}+|+1+2+3+4+C.5+      ",
"        R.6+7+<.<.8+9+0+a+b+3.+ c+d+- e+f+V 5.[.5.g+        ",
"          ~.h+i+j+S.b+e+3.b+k+    l+S.|.l.}.b+2.m+n+        ",
"          o+p+h+q+|.b+r+5.}.s+t+{+u+v+w+r+5.x+y+z+          ",
"            A+B+C+D+E+b+F+z.G+H+I+J+5.K+}.L+M+N+)+          ",
"              O+P+Q+R+S+5.4.5.K.b+S.K+K+T+U+V+W+            ",
"              X+%+C.r ) M.5.b+[.Y+b+B.Z+`+ @.@B+            ",
"              +@%+y+@@#@$@R+%@&@y.k+*@=@Z.-@;@A+            ",
"              >@,@'@)@-+!@L.[+~@{@%@]@^@/@h+h+(@            ",
"                _@E+:@<@[@$@v.}@|@$@1@2@3@] ;@              ",
"                4@z.U.#@5@6@]+]+7@8@9@0@$@r.a@              ",
"                b@E+W.c@n+d@(+$@e@u+f@L.0+g@h@              ",
"                  e@8+> i@j@k@L+N.k.l@z.b+Z+                ",
"                        m@5.l.|.n@b+}.b+o@p@                "};
